<?xml version="1.0" encoding="utf-8"?>
<!-- Generator: Adobe Illustrator 26.3.1, SVG Export Plug-In . SVG Version: 6.00 Build 0)  -->
<svg version="1.1" id="Capa_1" xmlns="http://www.w3.org/2000/svg" xmlns:xlink="http://www.w3.org/1999/xlink" x="0px" y="0px"
	 viewBox="0 0 800 800" style="enable-background:new 0 0 800 800;" xml:space="preserve">
<style type="text/css">
	.st0{fill:#1ED760;}
</style>
<path class="st0" d="M400,760c-7.5,0-14.7-3-19.8-8.3l-319.7-332c-0.1-0.1-0.2-0.2-0.2-0.3C21.4,378.1,0,323.2,0,265
	c0-58.2,21.4-113.1,60.2-154.5l4.9-5.2C104.5,63.2,157.3,40,213.6,40s109,23.2,148.5,65.3l37.9,40.4l37.9-40.4
	C477.4,63.2,530.2,40,586.4,40c56.3,0,109,23.2,148.5,65.3l4.9,5.2C778.6,151.9,800,206.8,800,265s-21.4,113.1-60.2,154.5
	c-0.1,0.1-0.2,0.2-0.2,0.3l-319.7,332C414.7,757,407.5,760,400,760z"/>
</svg>
