<?xml version="1.0" encoding="utf-8"?>
<!-- Generator: Adobe Illustrator 26.3.1, SVG Export Plug-In . SVG Version: 6.00 Build 0)  -->
<svg version="1.1" id="Capa_1" xmlns="http://www.w3.org/2000/svg" xmlns:xlink="http://www.w3.org/1999/xlink" x="0px" y="0px"
	 viewBox="0 0 800 800" style="enable-background:new 0 0 800 800;" xml:space="preserve">
<style type="text/css">
	.st0{fill:#B3B3B3;}
</style>
<path class="st0" d="M400,760c-7.5,0-14.7-3-19.8-8.3l-319.7-332c-0.1-0.1-0.2-0.2-0.2-0.3C21.4,378.1,0,323.2,0,265
	c0-58.2,21.4-113.1,60.2-154.5l4.9-5.2C104.5,63.2,157.3,40,213.6,40s109,23.2,148.5,65.3l37.9,40.4l37.9-40.4
	C477.4,63.2,530.2,40,586.4,40c56.3,0,109,23.2,148.5,65.3l4.9,5.2C778.6,151.9,800,206.8,800,265s-21.4,113.1-60.2,154.5
	c-0.1,0.1-0.2,0.2-0.2,0.3l-319.7,332C414.7,757,407.5,760,400,760z M100.2,384.4L400,695.6l299.8-311.2
	c61.7-65.9,61.6-173-0.1-238.9l-4.8-5.2c-29.1-31.1-67.6-48.2-108.4-48.2c-40.8,0-79.3,17.1-108.4,48.1l-58,61.8
	c-5.1,5.5-12.4,8.6-20.1,8.6c-7.7,0-15-3.1-20.1-8.6l-58-61.8c-29.1-31-67.6-48.1-108.4-48.1s-79.3,17.1-108.4,48.1l-4.9,5.2
	C38.6,211.3,38.6,318.5,100.2,384.4z"/>
</svg>
